<?xml version="1.0" encoding="UTF-8" standalone="no"?>
<svg
   xmlns:dc="http://purl.org/dc/elements/1.1/"
   xmlns:cc="http://creativecommons.org/ns#"
   xmlns:rdf="http://www.w3.org/1999/02/22-rdf-syntax-ns#"
   xmlns:svg="http://www.w3.org/2000/svg"
   xmlns="http://www.w3.org/2000/svg"
   id="svg8"
   version="1.1"
   viewBox="0 0 264.58332 264.58334"
   height="1000"
   width="1000">
  <defs
     id="defs2" />
  <metadata
     id="metadata5">
    <rdf:RDF>
      <cc:Work
         rdf:about="">
        <dc:format>image/svg+xml</dc:format>
        <dc:type
           rdf:resource="http://purl.org/dc/dcmitype/StillImage" />
        <dc:title></dc:title>
      </cc:Work>
    </rdf:RDF>
  </metadata>
  <path
     id="rect900"
     d="M -7.8408599,-160.70059 H 56.461288 c 2.517145,0 4.543582,1.79907 4.543582,4.03379 v 1.01958 c 0,2.23472 -2.026437,4.03379 -4.543582,4.03379 H -7.8408599 c -2.5171451,0 -4.5435821,-1.79907 -4.5435821,-4.03379 v -1.01958 c 0,-2.23472 2.026437,-4.03379 4.5435821,-4.03379 z"
     style="display:inline;opacity:1;fill:#f47921;fill-opacity:1;stroke:none;stroke-width:1.26999998;stroke-linecap:round;stroke-linejoin:round;stroke-miterlimit:4;stroke-dasharray:none;stroke-dashoffset:0;stroke-opacity:1;paint-order:stroke fill markers"
     transform="rotate(120)" />
  <path
     id="rect1021"
     d="m -229.58475,-63.576473 h 97.74171 c 2.61118,0 4.71332,2.102139 4.71332,4.713316 v 4e-6 c 0,2.611177 -2.10214,4.713316 -4.71332,4.713316 h -97.74171 c -2.61118,0 -4.71332,-2.102139 -4.71332,-4.713316 v -4e-6 c 0,-2.611177 2.10214,-4.713316 4.71332,-4.713316 z"
     style="display:inline;opacity:1;fill:#0095ff;fill-opacity:1;stroke:none;stroke-width:1.26999998;stroke-linecap:round;stroke-linejoin:round;stroke-miterlimit:4;stroke-dasharray:none;stroke-dashoffset:0;stroke-opacity:1;paint-order:stroke fill markers"
     transform="matrix(-0.8660254,-0.5,-0.5,0.8660254,0,0)" />
  <path
     id="rect1048"
     d="M -0.44884825,68.715195 H 97.292862 c 2.611177,0 4.713318,2.102139 4.713318,4.713316 v 3e-6 c 0,2.611178 -2.102141,4.713316 -4.713318,4.713316 H -0.44884825 c -2.61117705,0 -4.71331595,-2.102138 -4.71331595,-4.713316 v -3e-6 c 0,-2.611177 2.1021389,-4.713316 4.71331595,-4.713316 z"
     style="display:inline;opacity:1;fill:#ff8127;fill-opacity:1;stroke:none;stroke-width:1.26999998;stroke-linecap:round;stroke-linejoin:round;stroke-miterlimit:4;stroke-dasharray:none;stroke-dashoffset:0;stroke-opacity:1;paint-order:stroke fill markers"
     transform="rotate(-30)" />
  <path
     id="rect1054"
     d="m -181.16261,-244.29025 h 97.741706 c 2.611177,0 4.713316,2.10214 4.713316,4.71331 v 1e-5 c 0,2.61117 -2.102139,4.71331 -4.713316,4.71331 h -97.741706 c -2.61118,0 -4.71332,-2.10214 -4.71332,-4.71331 v -1e-5 c 0,-2.61117 2.10214,-4.71331 4.71332,-4.71331 z"
     style="display:inline;opacity:1;fill:#ff8127;fill-opacity:1;stroke:none;stroke-width:1.26999998;stroke-linecap:round;stroke-linejoin:round;stroke-miterlimit:4;stroke-dasharray:none;stroke-dashoffset:0;stroke-opacity:1;paint-order:stroke fill markers"
     transform="matrix(0,-1,-1,0,0,0)" />
  <path
     id="rect1060"
     d="m 131.84281,-160.4207 h 97.74171 c 2.61118,0 4.71332,2.10214 4.71332,4.71332 v 0 c 0,2.61118 -2.10214,4.71332 -4.71332,4.71332 h -97.74171 c -2.61118,0 -4.71332,-2.10214 -4.71332,-4.71332 v 0 c 0,-2.61118 2.10214,-4.71332 4.71332,-4.71332 z"
     style="display:inline;opacity:1;fill:#ff8127;fill-opacity:1;stroke:none;stroke-width:1.26999998;stroke-linecap:round;stroke-linejoin:round;stroke-miterlimit:4;stroke-dasharray:none;stroke-dashoffset:0;stroke-opacity:1;paint-order:stroke fill markers"
     transform="matrix(0.8660254,0.5,0.5,-0.8660254,0,0)" />
  <path
     id="rect1066"
     d="M -97.293047,-292.71237 H 0.44866371 c 2.61117709,0 4.71331599,2.10214 4.71331599,4.71331 v 10e-6 c 0,2.61117 -2.1021389,4.71331 -4.71331599,4.71331 H -97.293047 c -2.611177,0 -4.713313,-2.10214 -4.713313,-4.71331 v -10e-6 c 0,-2.61117 2.102136,-4.71331 4.713313,-4.71331 z"
     style="display:inline;opacity:1;fill:#0095ff;fill-opacity:1;stroke:none;stroke-width:1.26999998;stroke-linecap:round;stroke-linejoin:round;stroke-miterlimit:4;stroke-dasharray:none;stroke-dashoffset:0;stroke-opacity:1;paint-order:stroke fill markers"
     transform="rotate(150)" />
  <path
     id="rect1072"
     d="m 83.420668,20.293087 h 97.741712 c 2.61118,0 4.71331,2.102139 4.71331,4.713316 v 4e-6 c 0,2.611177 -2.10213,4.713316 -4.71331,4.713316 H 83.420668 c -2.611177,0 -4.713316,-2.102139 -4.713316,-4.713316 v -4e-6 c 0,-2.611177 2.102139,-4.713316 4.713316,-4.713316 z"
     style="display:inline;opacity:1;fill:#0095ff;fill-opacity:1;stroke:none;stroke-width:1.26999998;stroke-linecap:round;stroke-linejoin:round;stroke-miterlimit:4;stroke-dasharray:none;stroke-dashoffset:0;stroke-opacity:1;paint-order:stroke fill markers"
     transform="matrix(0,1,1,0,0,0)" />
  <path
     id="path835"
     d="m 130.10938,117.93164 a 4.6306706,4.6306706 0 1 0 0,9.25977 c 11.2374,0 21.18668,7.13045 24.79882,17.77148 3.61215,10.64103 0.0598,22.35637 -8.85547,29.19727 -8.91523,6.84089 -21.15058,7.24121 -30.49414,0.99804 -9.34355,-6.24316 -13.6565,-17.70019 -10.74804,-28.55468 a 4.6306706,4.6306706 0 1 0 -8.945316,-2.39649 c -3.926256,14.65299 1.935524,30.22245 14.548826,38.65039 12.61331,8.42794 29.24031,7.88524 41.27539,-1.34961 12.03509,-9.23484 16.86449,-25.15665 11.98828,-39.52148 -4.8762,-14.36483 -18.39846,-24.05469 -33.56835,-24.05469 z"
     style="color:#000000;font-style:normal;font-variant:normal;font-weight:normal;font-stretch:normal;font-size:medium;line-height:normal;font-family:sans-serif;font-variant-ligatures:normal;font-variant-position:normal;font-variant-caps:normal;font-variant-numeric:normal;font-variant-alternates:normal;font-feature-settings:normal;text-indent:0;text-align:start;text-decoration:none;text-decoration-line:none;text-decoration-style:solid;text-decoration-color:#000000;letter-spacing:normal;word-spacing:normal;text-transform:none;writing-mode:lr-tb;direction:ltr;text-orientation:mixed;dominant-baseline:auto;baseline-shift:baseline;text-anchor:start;white-space:normal;shape-padding:0;clip-rule:nonzero;display:inline;overflow:visible;visibility:visible;opacity:1;isolation:auto;mix-blend-mode:normal;color-interpolation:sRGB;color-interpolation-filters:linearRGB;solid-color:#000000;solid-opacity:1;vector-effect:none;fill:#0095ff;fill-opacity:1;fill-rule:nonzero;stroke:none;stroke-width:9.26041508;stroke-linecap:round;stroke-linejoin:round;stroke-miterlimit:4;stroke-dasharray:none;stroke-dashoffset:0;stroke-opacity:1;paint-order:stroke fill markers;color-rendering:auto;image-rendering:auto;shape-rendering:auto;text-rendering:auto;enable-background:accumulate" />
</svg>
